<svg width="814" height="869" viewBox="0 0 814 869" fill="none" xmlns="http://www.w3.org/2000/svg">
	<path d="M612.4 245.3C610.6 241.2 608.7 237.1 606.4 233.1C593.6 209.7 576.5 184.7 552.9 171.2C544.5 166.4 535.2 163.7 525.6 162.4C520.7 161.7 515.7 161.1 510.7 160.9C508.5 160.8 497.2 159.4 496.7 162.7C496.5 164.2 502.9 169.9 504 171.1C513.3 180.4 521.2 191.7 527.5 203.1C535.8 218.3 541.8 234.9 545.2 251.9C552 286.1 549.3 322.1 538.9 355.3C532.8 374.8 523.9 393.5 512.5 410.6C498.8 431.1 481.4 449.5 459.9 461.4C438.4 473.4 412.5 478.4 388.6 472.3C364.8 466.1 343.7 447.8 337.2 424.1C336 419.7 335.3 415.1 335.3 410.5C334.9 393.7 339.4 380.5 351.9 369.7C366.6 420.9 392 422.5 400.6 422.6C400.6 422.6 403.9 422.3 404 422.3C408.7 422.3 413.5 421.3 417.9 419.7C431.1 414.8 442 404 449.4 392.2C458 378.3 464.5 360.5 465.5 344.1C467.9 302.5 435.9 261.8 395 254.1C362.1 248 328.5 261.4 300.7 280.1C235.7 324 193.3 399.6 189.7 477.9C184.3 595.7 266.2 703.2 375.9 740.6C377.7 741.2 379.6 741.9 381.4 742.5L387 744.1C390.7 745.2 394.5 746.4 398.3 747.2C402.1 748.1 405.9 749.1 409.7 749.9L421.3 752.1C436.8 754.6 452.6 755.9 468.5 756L480.5 755.8L492.5 755C494.5 754.9 496.5 754.6 498.5 754.4L504.5 753.7C508.5 753.3 512.5 752.6 516.5 752C532.4 749.3 548.3 745.6 563.8 740.3C579.3 735 594.5 728.5 609.1 720.7L614.6 717.7C616.4 716.7 618.3 715.8 620 714.6L630.7 708.1L641.1 701.1C642 700.5 642.9 699.9 643.7 699.3L646.2 697.4L651.2 693.6C664.5 683.4 677.2 672.2 688.9 659.9C700.5 647.5 711.2 634.1 720.8 619.9C730.5 605.7 738.9 590.5 746.2 574.7C768.6 526 777.1 471.4 777.7 418.1C778.1 382.6 780.1 346.3 767.8 312.3C767.1 310.3 766.3 308.3 765.5 306.3C784.8 339.7 798.7 376.8 806.5 415.4C810.3 434.8 812.6 454.5 813.3 474.5L813.4 478.2C813.4 479.5 813.4 480.7 813.4 481.9V489.4C813.4 494.4 813.1 499.4 813 504.4C812.7 509.4 812.4 514.4 811.9 519.4L811.1 526.9L810.7 530.7L810.2 534.4C807.5 554.4 803.4 574.2 797.4 593.7C791.5 613.2 784.3 632.4 775.1 650.8C766 669.3 755.5 687.1 743.5 704.2C731.4 721.1 717.9 737.1 703.1 752.1L697.5 757.7L694.7 760.5C693.8 761.4 692.8 762.3 691.8 763.2C687.9 766.7 684 770.3 680 773.8L667.7 783.8C665.7 785.5 663.5 787 661.4 788.6L655 793.3C637.8 805.7 619.6 816.8 600.5 826.5C581.4 836.2 561.3 844.1 540.7 850.6C535.5 852.2 530.4 853.9 525.1 855.2L517.2 857.2C514.6 857.9 512 858.6 509.3 859.1L493.3 862.4C487.9 863.3 482.5 864.1 477.1 865C455.4 868 433.4 869.3 411.4 868.9L394.8 868.2C389.3 867.8 383.8 867.2 378.3 866.7C372.8 866.3 367.3 865.4 361.8 864.6L353.6 863.4C350.9 863 348.2 862.4 345.4 861.9L337.2 860.3C334.5 859.8 331.7 859.3 329 858.5L312.8 854.4C307.4 852.9 302.1 851.2 296.7 849.6C291.3 848.1 286.1 846.1 280.8 844.2C259.7 836.6 239 827.3 219.2 816.1C199.4 805 180.4 792.2 162.4 778C144.5 763.7 127.7 747.8 112.2 730.7L106.4 724.2L103.5 720.9L100.8 717.6C97.1999 713.1 93.5 708.6 89.9 704L79.5999 690C78.6999 688.8 77.8999 687.6 77.0999 686.4L74.6999 682.8L69.9 675.5C57.3 655.9 46.1999 635.2 36.7999 613.7L30.0999 597.4C27.9999 591.9 26.0999 586.3 24.0999 580.8C23.5999 579.4 23.0999 578 22.5999 576.6L21.2999 572.4L18.7 563.9C17.9 561.1 16.9 558.2 16.2 555.4L13.9999 546.8L11.7999 538.2C11.0999 535.3 10.6 532.4 9.89996 529.5L8.09991 520.8C7.49991 517.9 6.89994 514.9 6.49994 512L3.79993 494.3L1.99994 476.4C-6.07685e-05 452.5 -7.29278e-05 428.3 1.79993 404.2L3.59991 386.1C4.29991 380.1 5.29995 374.1 6.19995 368.1C6.99995 362.1 8.29994 356.2 9.49994 350.2L11.2999 341.3C11.8999 338.3 12.7 335.4 13.4 332.5C24.8 285.4 44.1999 239.4 70.7999 197.4C134.4 97.3 234.1 21.5 353.3 4.00002C415.2 -5.09998 481.7 2.30002 534.1 36.5C556 50.8 574.8 69.8 589.5 91.4C604.1 113 614.8 137.4 620.1 163C625.5 188.9 629.1 214.6 624.8 241.1C624 245.8 623.1 250.3 621.7 254.9C621.2 256.4 618.7 261.4 619.2 262.9C617.2 257.1 614.9 251.1 612.4 245.3Z" fill="#E03065"/>
</svg>
