<svg width="30" height="30" viewBox="0 0 30 30" fill="none" xmlns="http://www.w3.org/2000/svg">
	<path d="M22.3035 8.60414C22.2393 8.46724 22.1715 8.33034 22.0895 8.19679C21.6329 7.41548 21.0229 6.58075 20.181 6.12999C19.8813 5.96972 19.5495 5.87957 19.2071 5.83617C19.0323 5.81279 18.8539 5.79276 18.6755 5.78608C18.5971 5.78274 18.1939 5.736 18.1761 5.84618C18.169 5.89627 18.3973 6.08658 18.4365 6.12665C18.7683 6.43717 19.0501 6.81447 19.2749 7.19511C19.5709 7.70263 19.785 8.25689 19.9063 8.82451C20.1489 9.96642 20.0525 11.1684 19.6815 12.277C19.4639 12.928 19.1464 13.5524 18.7397 14.1234C18.251 14.8079 17.6303 15.4222 16.8633 15.8196C16.0963 16.2202 15.1724 16.3872 14.3198 16.1835C13.4708 15.9765 12.718 15.3655 12.4862 14.5741C12.4434 14.4272 12.4184 14.2736 12.4184 14.12C12.4041 13.5591 12.5646 13.1184 13.0106 12.7578C13.535 14.4673 14.4411 14.5207 14.7479 14.5241C14.7479 14.5241 14.8656 14.514 14.8692 14.514C15.0368 14.514 15.2081 14.4806 15.365 14.4272C15.8359 14.2636 16.2248 13.903 16.4887 13.509C16.7955 13.0449 17.0274 12.4506 17.0631 11.903C17.1487 10.514 16.0072 9.15506 14.5481 8.89796C13.3744 8.69429 12.1758 9.1417 11.1841 9.76608C8.86529 11.2319 7.35274 13.7561 7.22431 16.3705C7.03167 20.3037 9.95334 23.8931 13.8667 25.1418C13.9309 25.1619 13.9987 25.1852 14.0629 25.2053L14.2627 25.2587C14.3947 25.2954 14.5303 25.3355 14.6658 25.3622C14.8014 25.3923 14.9369 25.4257 15.0725 25.4524L15.4863 25.5258C16.0393 25.6093 16.6029 25.6527 17.1701 25.656L17.5982 25.6494L18.0263 25.6226C18.0976 25.6193 18.169 25.6093 18.2403 25.6026L18.4544 25.5792C18.5971 25.5659 18.7398 25.5425 18.8824 25.5225C19.4497 25.4323 20.0169 25.3088 20.5698 25.1318C21.1227 24.9549 21.665 24.7378 22.1858 24.4774L22.382 24.3772C22.4462 24.3438 22.514 24.3138 22.5747 24.2737L22.9564 24.0567L23.3274 23.823C23.3595 23.8029 23.3916 23.7829 23.4201 23.7629L23.5093 23.6994L23.6877 23.5725C24.1621 23.232 24.6152 22.858 25.0326 22.4473C25.4464 22.0333 25.8281 21.5859 26.1706 21.1118C26.5166 20.6376 26.8163 20.1301 27.0767 19.6026C27.8758 17.9765 28.179 16.1534 28.2004 14.3738C28.2147 13.1885 28.286 11.9765 27.8472 10.8412C27.8223 10.7744 27.7937 10.7077 27.7652 10.6409C28.4537 11.7561 28.9495 12.9948 29.2278 14.2837C29.3633 14.9314 29.4454 15.5892 29.4704 16.257L29.4739 16.3805C29.4739 16.4239 29.4739 16.464 29.4739 16.504V16.7545C29.4739 16.9214 29.4632 17.0883 29.4597 17.2553C29.449 17.4222 29.4383 17.5892 29.4204 17.7561L29.3919 18.0066L29.3776 18.1334L29.3598 18.257C29.2635 18.9248 29.1172 19.5859 28.9032 20.237C28.6927 20.888 28.4358 21.5291 28.1076 22.1435C27.783 22.7612 27.4084 23.3555 26.9804 23.9265C26.5487 24.4907 26.0671 25.025 25.5391 25.5258L25.3394 25.7128L25.2395 25.8063C25.2074 25.8363 25.1717 25.8664 25.136 25.8964C24.9969 26.0133 24.8578 26.1335 24.7151 26.2504L24.2763 26.5843C24.2049 26.641 24.1265 26.6911 24.0516 26.7445L23.8232 26.9015C23.2097 27.3155 22.5604 27.6861 21.879 28.01C21.1977 28.3339 20.4806 28.5976 19.7457 28.8147C19.5602 28.8681 19.3783 28.9248 19.1892 28.9682L18.9074 29.035C18.8147 29.0584 18.7219 29.0818 18.6256 29.0985L18.0548 29.2087C17.8622 29.2387 17.6695 29.2654 17.4769 29.2955C16.7028 29.3956 15.918 29.439 15.1331 29.4257L14.541 29.4023C14.3448 29.389 14.1486 29.3689 13.9524 29.3522C13.7561 29.3389 13.5599 29.3088 13.3637 29.2821L13.0712 29.242C12.9749 29.2287 12.8786 29.2087 12.7787 29.192L12.4862 29.1385C12.3898 29.1218 12.29 29.1051 12.1936 29.0784L11.6157 28.9415C11.4231 28.8915 11.234 28.8347 11.0414 28.7813C10.8487 28.7312 10.6632 28.6644 10.4742 28.601C9.72146 28.3472 8.98302 28.0367 8.27668 27.6627C7.57034 27.2921 6.89255 26.8647 6.25042 26.3906C5.61186 25.9131 5.01255 25.3822 4.45961 24.8113L4.2527 24.5943L4.14925 24.4841L4.05293 24.3739C3.9245 24.2236 3.79251 24.0734 3.66409 23.9198L3.29665 23.4523C3.26454 23.4123 3.236 23.3722 3.20746 23.3321L3.12185 23.2119L2.95061 22.9682C2.50113 22.3138 2.10515 21.6226 1.76982 20.9047L1.5308 20.3605C1.45589 20.1769 1.38811 19.9899 1.31676 19.8062C1.29892 19.7595 1.28109 19.7127 1.26325 19.666L1.21688 19.5258L1.12413 19.242C1.09559 19.1485 1.05991 19.0516 1.03494 18.9581L0.956459 18.671L0.877977 18.3839C0.853005 18.287 0.83517 18.1902 0.810198 18.0934L0.745984 17.8029C0.72458 17.706 0.703176 17.6059 0.688907 17.5091L0.592588 16.9181L0.528376 16.3204C0.457028 15.5224 0.457028 14.7144 0.521241 13.9097L0.585453 13.3053C0.610424 13.105 0.646099 12.9047 0.678205 12.7043C0.706744 12.504 0.753119 12.307 0.795928 12.1067L0.86014 11.8095C0.881544 11.7093 0.910084 11.6125 0.935056 11.5157C1.34173 9.94305 2.0338 8.40714 2.98272 7.00479C5.25156 3.66252 8.80822 1.13162 13.0605 0.547305C15.2687 0.243463 17.641 0.490544 19.5103 1.63246C20.2916 2.10992 20.9622 2.74432 21.4866 3.46553C22.0075 4.18674 22.3892 5.00143 22.5782 5.8562C22.7709 6.72098 22.8993 7.57909 22.7459 8.4639C22.7174 8.62083 22.6852 8.77108 22.6353 8.92467C22.6175 8.97476 22.5283 9.1417 22.5461 9.19179C22.4748 8.99813 22.3927 8.79779 22.3035 8.60414Z" fill="#E03065"/>
</svg>
