<svg viewBox="0 0 1024 1024" class="icon" version="1.1" xmlns="http://www.w3.org/2000/svg" fill="#000000">
    <g id="SVGRepo_bgCarrier" stroke-width="0"></g>
    <g id="SVGRepo_tracerCarrier" stroke-linecap="round" stroke-linejoin="round"></g>
    <g id="SVGRepo_iconCarrier">
        <path
            d="M469.333333 938.666667c-40.533333 0-76.8-21.333333-96-46.933334-42.666667 6.4-96-4.266667-119.466666-38.4-38.4-51.2-25.6-106.666667-17.066667-130.133333 0-2.133333 2.133333-4.266667 2.133333-4.266667l59.733334-89.6c4.266667-8.533333 14.933333-10.666667 23.466666-8.533333l262.4 102.4c10.666667 2.133333 14.933333 12.8 14.933334 23.466667l-25.6 138.666666c0 4.266667-2.133333 6.4-4.266667 8.533334-2.133333 2.133333-29.866667 38.4-87.466667 42.666666-4.266667 2.133333-8.533333 2.133333-12.8 2.133334z"
            fill="#558B2F"></path>
        <path
            d="M522.666667 874.666667c-10.666667-12.8-19.2-27.733333-23.466667-42.666667-2.133333-4.266667-2.133333-8.533333-4.266667-12.8-2.133333-4.266667-4.266667-14.933333-8.533333-32-14.933333-2.133333-29.866667-6.4-44.8-12.8-4.266667-2.133333-6.4-2.133333-10.666667-4.266667l-12.8-6.4c-4.266667-2.133333-6.4-2.133333-10.666666-4.266666-14.933333-6.4-27.733333-14.933333-40.533334-23.466667-12.8 8.533333-27.733333 14.933333-42.666666 17.066667H320c-6.4 2.133333-21.333333 4.266667-38.4 4.266666-14.933333 0-34.133333-2.133333-51.2-8.533333 38.4 46.933333 83.2 49.066667 102.4 44.8 10.666667-2.133333 21.333333-4.266667 32-10.666667 25.6 17.066667 55.466667 29.866667 87.466667 38.4 2.133333 4.266667 2.133333 6.4 2.133333 10.666667 12.8 40.533333 57.6 76.8 104.533333 72.533333-14.933333-6.4-25.6-17.066667-36.266666-29.866666z"
            fill="#33691E"></path>
        <path
            d="M281.6 755.2c-34.133333 0-83.2-8.533333-115.2-53.333333-21.333333-32-25.6-89.6-6.4-128-36.266667-32-70.4-100.266667-46.933333-170.666667 21.333333-66.133333 81.066667-96 121.6-106.666667 0-32 8.533333-70.4 40.533333-102.4 55.466667-57.6 128-42.666667 132.266667-42.666666 10.666667 2.133333 17.066667 12.8 14.933333 23.466666l8.533333 501.333334c-2.133333 8.533333-55.466667 68.266667-106.666666 76.8 0-2.133333-19.2 2.133333-42.666667 2.133333z"
            fill="#7CB342"></path>
        <path
            d="M887.466667 597.333333c-32 32-76.8 34.133333-102.4 29.866667 17.066667-36.266667 25.6-74.666667 25.6-115.2 0-153.6-123.733333-277.333333-277.333334-277.333333-61.866667 0-117.333333 19.2-162.133333 53.333333-10.666667-12.8-17.066667-34.133333-19.2-49.066667v-2.133333-8.533333c0-6.4 0-12.8 2.133333-19.2v-2.133334c2.133333-6.4 2.133333-12.8 4.266667-17.066666 0 0 0-2.133333 2.133333-2.133334 2.133333-6.4 4.266667-10.666667 8.533334-17.066666v-2.133334c4.266667-6.4 8.533333-10.666667 12.8-17.066666-23.466667 10.666667-68.266667 38.4-74.666667 78.933333 0 21.333333 2.133333 38.4 6.4 51.2C251.733333 337.066667 213.333333 420.266667 213.333333 512c0 96 42.666667 181.333333 108.8 238.933333h4.266667c14.933333-2.133333 27.733333-8.533333 42.666667-17.066666 34.133333 25.6 74.666667 42.666667 119.466666 51.2 4.266667 17.066667 8.533333 29.866667 8.533334 32 12.8 46.933333 44.8 83.2 85.333333 96 10.666667 2.133333 23.466667 4.266667 36.266667 4.266666 23.466667 0 51.2-6.4 70.4-19.2 29.866667 10.666667 81.066667 12.8 117.333333-8.533333 36.266667-21.333333 57.6-74.666667 51.2-115.2 32-17.066667 51.2-42.666667 59.733333-74.666667 6.4-34.133333-4.266667-76.8-29.866666-102.4z"
            fill="#689F38"></path>
        <path
            d="M785.066667 627.2c-34.133333 74.666667-102.4 132.266667-183.466667 153.6h-2.133333c-10.666667 2.133333-19.2 4.266667-29.866667 6.4h-2.133333c-12.8 2.133333-23.466667 2.133333-34.133334 2.133333-8.533333 0-17.066667 0-25.6-2.133333-4.266667 0-10.666667-2.133333-14.933333-2.133333h-8.533333c4.266667 17.066667 8.533333 29.866667 8.533333 32 2.133333 4.266667 2.133333 8.533333 4.266667 12.8 12.8 2.133333 23.466667 2.133333 36.266666 2.133333 117.333333 0 219.733333-64 275.2-157.866667 29.866667-2.133333 68.266667-29.866667 78.933334-74.666666-4.266667 4.266667-8.533333 6.4-12.8 10.666666-29.866667 19.2-66.133333 19.2-89.6 17.066667z"
            fill="#558B2F"></path>
        <path
            d="M746.666667 597.333333c-21.333333-8.533333-74.666667 2.133333-98.133334 51.2-34.133333-29.866667-87.466667-10.666667-108.8 19.2-8.533333-27.733333-32-119.466667-134.4-93.866666l-145.066666-12.8C283.733333 691.2 396.8 789.333333 533.333333 789.333333c125.866667 0 230.4-83.2 264.533334-198.4L746.666667 597.333333z"
            fill="#9CCC65"></path>
        <path
            d="M450.133333 571.733333c-4.266667 19.2-10.666667 36.266667-23.466666 46.933334-21.333333 17.066667-53.333333 23.466667-59.733334 21.333333-10.666667 12.8-25.6 23.466667-40.533333 27.733333-6.4 2.133333-12.8 2.133333-21.333333 2.133334-10.666667-14.933333-19.2-29.866667-25.6-46.933334 8.533333 2.133333 17.066667 4.266667 25.6 4.266667 4.266667 0 6.4 0 8.533333-2.133333 14.933333-4.266667 27.733333-21.333333 34.133333-38.4 10.666667 6.4 23.466667 12.8 40.533334 12.8 8.533333 0 17.066667-2.133333 27.733333-6.4 8.533333-4.266667 17.066667-12.8 23.466667-23.466667 2.133333 2.133333 6.4 2.133333 10.666666 2.133333zM725.333333 595.2c-6.4 0-12.8 2.133333-19.2 4.266667 8.533333 29.866667 32 57.6 57.6 66.133333 8.533333-12.8 14.933333-25.6 21.333334-38.4-23.466667-4.266667-44.8-14.933333-59.733334-32z"
            fill="#7CB342"></path>
        <path
            d="M893.866667 443.733333c29.866667-51.2 32-117.333333 0-160-25.6-36.266667-68.266667-55.466667-115.2-53.333333 2.133333-55.466667-29.866667-115.2-123.733334-140.8-36.266667-8.533333-89.6 0-125.866666 32-40.533333-23.466667-106.666667-10.666667-138.666667 17.066667-27.733333 25.6-42.666667 55.466667-40.533333 89.6 0 14.933333 6.4 44.8 19.2 59.733333C300.8 337.066667 256 420.266667 256 512c0 40.533333 8.533333 76.8 23.466667 110.933333 10.666667 4.266667 25.6 6.4 36.266666 4.266667 14.933333-4.266667 27.733333-21.333333 34.133334-38.4 14.933333 8.533333 38.4 19.2 68.266666 6.4 19.2-8.533333 36.266667-40.533333 32-59.733333 46.933333 36.266667 140.8-17.066667 106.666667-106.666667l42.666667-106.666667-32-83.2c-4.266667 0-8.533333 0-12.8-2.133333 142.933333 10.666667 256 130.133333 256 277.333333 0 40.533333-8.533333 81.066667-25.6 115.2 29.866667 2.133333 81.066667 2.133333 113.066666-42.666666 17.066667-23.466667 21.333333-70.4 12.8-104.533334-4.266667-17.066667-8.533333-29.866667-17.066666-38.4z"
            fill="#AED581"></path>
        <path
            d="M533.333333 192c-66.133333 0-128 21.333333-179.2 55.466667 2.133333 14.933333 8.533333 29.866667 17.066667 40.533333 14.933333-10.666667 29.866667-19.2 46.933333-27.733333-6.4 32-2.133333 64 12.8 91.733333 14.933333 25.6 38.4 44.8 66.133334 55.466667 0 10.666667-4.266667 42.666667 25.6 70.4 10.666667 8.533333 21.333333 14.933333 34.133333 19.2 2.133333-6.4 6.4-14.933333 6.4-23.466667l-8.533333-8.533333c-19.2-25.6-19.2-61.866667-6.4-91.733334h-4.266667c-64 0-113.066667-64-74.666667-132.266666h-2.133333c21.333333-4.266667 42.666667-8.533333 66.133333-8.533334 153.6 0 277.333333 123.733333 277.333334 277.333334 0 40.533333-8.533333 81.066667-25.6 115.2 12.8 2.133333 29.866667 2.133333 46.933333-2.133334 12.8-36.266667 21.333333-74.666667 21.333333-115.2C853.333333 334.933333 708.266667 192 533.333333 192z"
            fill="#8BC34A"></path>
        <path
            d="M810.666667 512c0-153.6-123.733333-277.333333-277.333334-277.333333-21.333333 0-42.666667 2.133333-64 8.533333-38.4 68.266667 12.8 134.4 78.933334 132.266667-12.8 29.866667-12.8 66.133333 6.4 91.733333 19.2 25.6 55.466667 27.733333 87.466666 25.6-4.266667 17.066667-2.133333 46.933333 10.666667 57.6s40.533333 10.666667 53.333333 6.4c10.666667 42.666667 44.8 66.133333 78.933334 72.533333 14.933333-36.266667 25.6-76.8 25.6-117.333333z"
            fill="#DCEDC8"></path>
        <path
            d="M661.333333 266.666667l10.666667 12.8 12.8 17.066666s2.133333 2.133333 4.266667 6.4c2.133333 2.133333 2.133333 4.266667 4.266666 8.533334 2.133333 2.133333 2.133333 4.266667 4.266667 8.533333 2.133333 2.133333 2.133333 6.4 4.266667 10.666667s2.133333 8.533333 2.133333 12.8v14.933333c0 4.266667 0 10.666667-2.133333 14.933333-4.266667 21.333333-14.933333 40.533333-25.6 53.333334-10.666667 12.8-19.2 21.333333-19.2 21.333333s10.666667-6.4 23.466666-17.066667c12.8-10.666667 29.866667-29.866667 40.533334-51.2 2.133333-6.4 4.266667-10.666667 6.4-17.066666 2.133333-6.4 2.133333-12.8 4.266666-19.2v-17.066667-2.133333c-19.2-23.466667-42.666667-42.666667-70.4-57.6z"
            fill="#AED581"></path>
    </g>
</svg>