<svg viewBox="0 0 1024 1024" class="icon" version="1.1" xmlns="http://www.w3.org/2000/svg" fill="#000000">
    <g id="SVGRepo_bgCarrier" stroke-width="0"></g>
    <g id="SVGRepo_tracerCarrier" stroke-linecap="round" stroke-linejoin="round"></g>
    <g id="SVGRepo_iconCarrier">
        <path
            d="M903.68 84.629333c-39.232 0-155.093333 14.272-242.346667 171.370667-106.666667 192-128 213.333333-170.666666 256S234.666667 725.333333 234.666667 725.333333s-106.666667 85.333333-128 170.666667c0 0 41.450667 42.666667 127.402666 42.666667S490.666667 938.666667 725.333333 704c170.666667-192 170.666667-405.333333 170.666667-405.333333V170.666667c0-67.456 21.333333-85.333333 21.333333-85.333334s-4.928-0.704-13.653333-0.704z"
            fill="#7CB342"></path>
        <path
            d="M698.624 276.714667c-109.568 197.226667-132.352 220.032-177.792 265.450666-43.84 43.84-250.730667 209.450667-259.52 216.469334-22.570667 18.154667-78.144 70.144-103.210667 121.088 15.914667 7.872 41.045333 16.277333 75.968 16.277333 83.392 0 238.506667 0 460.202667-221.269333 156.16-176.384 159.04-374.208 159.061333-376.170667V170.666667c0-13.354667 0.725333-25.301333 2.005334-36.010667-44.586667 13.290667-105.045333 49.066667-156.714667 142.058667z"
            fill="#388E3C"></path>
        <path
            d="M736 437.333333m-53.333333 0a53.333333 53.333333 0 1 0 106.666666 0 53.333333 53.333333 0 1 0-106.666666 0Z"
            fill="#C5E1A5"></path>
        <path
            d="M789.333333 277.333333m-42.666666 0a42.666667 42.666667 0 1 0 85.333333 0 42.666667 42.666667 0 1 0-85.333333 0Z"
            fill="#C5E1A5"></path>
        <path d="M640 576m-64 0a64 64 0 1 0 128 0 64 64 0 1 0-128 0Z" fill="#C5E1A5"></path>
        <path
            d="M522.666667 693.333333m-53.333334 0a53.333333 53.333333 0 1 0 106.666667 0 53.333333 53.333333 0 1 0-106.666667 0Z"
            fill="#C5E1A5"></path>
        <path
            d="M405.333333 789.333333m-42.666666 0a42.666667 42.666667 0 1 0 85.333333 0 42.666667 42.666667 0 1 0-85.333333 0Z"
            fill="#C5E1A5"></path>
        <path
            d="M277.333333 832m-42.666666 0a42.666667 42.666667 0 1 0 85.333333 0 42.666667 42.666667 0 1 0-85.333333 0Z"
            fill="#C5E1A5"></path>
        <path
            d="M917.333333 85.333333s-149.333333-21.333333-256 170.666667-128 213.333333-170.666666 256-256 213.333333-256 213.333333-106.666667 85.333333-128 170.666667c0 0 213.333333-64 448-298.666667 170.666667-192 149.333333-277.333333 277.333333-426.666666 43.904-51.221333 85.333333-85.333333 85.333333-85.333334z"
            fill="#8BC34A"></path>
    </g>
</svg>