<svg viewBox="0 0 1024 1024" class="icon" version="1.1" xmlns="http://www.w3.org/2000/svg" fill="#000000">
    <g id="SVGRepo_bgCarrier" stroke-width="0"></g>
    <g id="SVGRepo_tracerCarrier" stroke-linecap="round" stroke-linejoin="round"></g>
    <g id="SVGRepo_iconCarrier">
        <path
            d="M422.4 917.333333c-14.933333 0-29.866667 0-44.8-2.133333-98.133333-10.666667-179.2-57.6-224-132.266667-108.8-177.066667 2.133333-277.333333 108.8-371.2 27.733333-25.6 57.6-51.2 83.2-78.933333 8.533333-8.533333 17.066667-19.2 25.6-27.733333 115.2-128 243.2-273.066667 422.4-149.333334 72.533333 51.2 115.2 128 125.866667 224 12.8 132.266667-42.666667 283.733333-142.933334 388.266667-98.133333 93.866667-228.266667 149.333333-354.133333 149.333333z"
            fill="#8D6E63"></path>
        <path
            d="M422.4 917.333333c-14.933333 0-29.866667 0-44.8-2.133333-98.133333-10.666667-179.2-57.6-224-132.266667-29.866667-49.066667-42.666667-89.6-44.8-128 206.933333 187.733333 716.8 46.933333 808.533333-277.333333 12.8 132.266667-42.666667 283.733333-142.933333 388.266667-96 96-226.133333 151.466667-352 151.466666z"
            fill="#795548"></path>
        <path d="M480 821.333333m-32 0a32 32 0 1 0 64 0 32 32 0 1 0-64 0Z" fill="#3E2723"></path>
        <path
            d="M725.333333 277.333333c12.8 0 21.333333 8.533333 21.333334 21.333334s-8.533333 21.333333-21.333334 21.333333-21.333333-8.533333-21.333333-21.333333 8.533333-21.333333 21.333333-21.333334z m0 234.666667c0 12.8 8.533333 21.333333 21.333334 21.333333s21.333333-8.533333 21.333333-21.333333-8.533333-21.333333-21.333333-21.333333-21.333333 8.533333-21.333334 21.333333z m-170.666666-149.333333c0 12.8 8.533333 21.333333 21.333333 21.333333s21.333333-8.533333 21.333333-21.333333-8.533333-21.333333-21.333333-21.333334-21.333333 8.533333-21.333333 21.333334zM298.666667 682.666667c0 12.8 8.533333 21.333333 21.333333 21.333333s21.333333-8.533333 21.333333-21.333333-8.533333-21.333333-21.333333-21.333334-21.333333 8.533333-21.333333 21.333334z m128-74.666667c0 17.066667 14.933333 32 32 32s32-14.933333 32-32-14.933333-32-32-32-32 14.933333-32 32z"
            fill="#5D4037"></path>
    </g>
</svg>